<svg width="12" height="14" viewBox="0 0 12 14" fill="none" xmlns="http://www.w3.org/2000/svg">
<path fill-rule="evenodd" clip-rule="evenodd" d="M3.68466 2.42206C3.68466 1.80808 3.92856 1.21925 4.3627 0.785103C4.79685 0.350957 5.38568 0.107056 5.99966 0.107056C6.61363 0.107056 7.20246 0.350957 7.63661 0.785103C8.07075 1.21925 8.31465 1.80808 8.31465 2.42206C8.31465 3.03603 8.07075 3.62486 7.63661 4.05901C7.20246 4.49315 6.61363 4.73706 5.99966 4.73706C5.38568 4.73706 4.79685 4.49315 4.3627 4.05901C3.92856 3.62486 3.68466 3.03603 3.68466 2.42206ZM1.44566 6.21406C1.9169 5.7667 2.54188 5.51729 3.19166 5.51729C3.84143 5.51729 4.46641 5.7667 4.93766 6.21406L4.94766 6.22406L5.99966 7.27606L7.05266 6.22406L7.06265 6.21406C7.5338 5.76728 8.15836 5.51824 8.80765 5.51824C9.45695 5.51824 10.0815 5.76728 10.5527 6.21406C10.7867 6.436 10.9731 6.70324 11.1006 6.99951C11.2281 7.29577 11.294 7.61488 11.2943 7.93741C11.2945 8.25995 11.2292 8.57916 11.1022 8.87565C10.9753 9.17214 10.7893 9.4397 10.5557 9.66206L6.34766 13.7521C6.25433 13.8428 6.12931 13.8935 5.99916 13.8935C5.869 13.8935 5.74398 13.8428 5.65066 13.7521L1.44366 9.66206C1.21011 9.43978 1.0242 9.17234 0.897236 8.87598C0.770269 8.57962 0.704891 8.26054 0.705079 7.93813C0.705266 7.61572 0.771013 7.29671 0.898325 7.0005C1.02564 6.70429 1.21185 6.43606 1.44566 6.21406Z" fill="#49B3BA"/>
</svg>
